<?xml version="1.0" encoding="UTF-8"?>
<svg xmlns="http://www.w3.org/2000/svg" viewBox="0 0 512 512" width="350" height="350">
  <path d="M336 448h-288c-26.5 0-48-21.5-48-48v-352c0-26.5 21.5-48 48-48h288c26.5 0 48 21.5 48 48v352c0 26.5-21.5 48-48 48zm-281.6-384c-9.4 0-17 7.6-17 17s7.6 17 17 17 17-7.6 17-17-7.6-17-17-17zm-32.7 96c-9.4 0-17 7.6-17 17s7.6 17 17 17 17-7.6 17-17-7.6-17-17-17zm32.7 96c-9.4 0-17 7.6-17 17s7.6 17 17 17 17-7.6 17-17-7.6-17-17-17zm281.6 192h-288c-26.5 0-48-21.5-48-48v-352c0-26.5 21.5-48 48-48h288c26.5 0 48 21.5 48 48v352c0 26.5-21.5 48-48 48zm-112-320h64c8.8 0 16-7.2 16-16v-64c0-8.8-7.2-16-16-16h-64c-8.8 0-16 7.2-16 16v64c0 8.8 7.2 16 16 16zm-64 0h32c8.8 0 16-7.2 16-16v-64c0-8.8-7.2-16-16-16h-32c-8.8 0-16 7.2-16 16v64c0 8.8 7.2 16 16 16zm-64 0h32c8.8 0 16-7.2 16-16v-64c0-8.8-7.2-16-16-16h-32c-8.8 0-16 7.2-16 16v64c0 8.8 7.2 16 16 16zm-32 32h-32c-8.8 0-16 7.2-16 16v64c0 8.8 7.2 16 16 16h32c8.8 0 16-7.2 16-16v-64c0-8.8-7.2-16-16-16zm0 128h-32c-8.8 0-16 7.2-16 16v64c0 8.8 7.2 16 16 16h32c8.8 0 16-7.2 16-16v-64c0-8.8-7.2-16-16-16zm160 0h-128c-8.8 0-16 7.2-16 16v64c0 8.8 7.2 16 16 16h128c8.8 0 16-7.2 16-16v-64c0-8.8-7.2-16-16-16z" fill="#ffffff" opacity="0.5"/>
</svg>